<svg width="389" height="62" viewBox="0 0 389 62" fill="none" xmlns="http://www.w3.org/2000/svg">
<path fill-rule="evenodd" clip-rule="evenodd" d="M57.1839 0.119248C57.0259 0.180883 56.4196 0.891229 55.8365 1.69777C53.7752 4.54928 52.9668 5.07053 51.9414 4.21006C51.6887 3.9983 50.8596 3.11384 50.0987 2.24478C49.3378 1.37594 48.4893 0.59538 48.2129 0.510631C47.4184 0.266732 46.7929 1.19214 46.2098 3.47418C45.6967 5.48173 45.0881 6.57641 44.4845 6.57641C44.3079 6.57641 43.089 6.0316 41.7762 5.36572C38.0714 3.48673 37.8713 3.60098 38.0973 7.46638C38.1929 9.10522 38.1649 10.2598 38.0231 10.516C37.6781 11.1394 36.9067 11.223 34.8022 10.8649C32.1158 10.4075 31.2559 10.435 30.9502 10.9873C30.6557 11.5196 30.7413 11.8209 31.895 14.3099C32.8343 16.3368 32.9727 17.1504 32.4497 17.5702C32.2706 17.7141 31.1182 18.0263 29.8891 18.264C26.7686 18.8678 26.4026 19.0318 26.4026 19.8269C26.4026 20.338 26.7841 20.8617 28.1925 22.2841C29.1771 23.2785 30.0573 24.3196 30.1488 24.5981C30.3682 25.2668 29.7059 25.9435 27.8497 26.9473C25.2022 28.3792 24.5469 29.1983 25.4352 29.9654C25.6544 30.1545 26.7042 30.7156 27.7682 31.2124C29.8768 32.1966 30.7554 32.9495 30.5749 33.6173C30.5118 33.8504 29.8445 34.7706 29.092 35.6625C26.3147 38.9538 26.4743 39.3793 30.6133 39.7183C31.6148 39.8002 32.7672 39.9992 33.1739 40.1603C34.1358 40.5411 34.1426 41.1421 33.2149 43.7534C32.8175 44.8726 32.5476 46.0372 32.589 46.455C32.6509 47.0787 32.7597 47.2004 33.3105 47.2614C33.6672 47.3008 35.0223 47.0707 36.322 46.75C37.6214 46.4291 38.883 46.2277 39.1252 46.3018C39.7892 46.5057 40.0591 47.5713 40.0591 49.9885C40.0591 51.1891 40.1652 52.363 40.2947 52.5972C40.6887 53.3089 41.5238 53.087 43.6671 51.7004C44.7915 50.9729 46.0218 50.3178 46.401 50.2443C47.0046 50.1276 47.148 50.2029 47.5574 50.8516C47.8146 51.2588 48.1387 51.9388 48.2778 52.3626C48.9183 54.3131 49.6897 55.6732 50.2298 55.8044C50.929 55.9742 51.3626 55.5922 52.934 53.4233C53.6134 52.4856 54.3677 51.6157 54.6103 51.4902C55.5262 51.016 55.5294 51.0185 58.6078 54.2887C60.4014 56.1938 60.9203 55.9083 61.9095 52.4726C62.1883 51.5041 62.5612 50.4391 62.7378 50.1063C63.2276 49.1837 64.1189 49.305 66.4874 50.6159C68.9337 51.9696 69.8797 52.0399 70.1216 50.8853C70.2033 50.4966 70.1788 49.2198 70.0675 48.0481C69.7515 44.7244 70.0668 44.5045 74.1526 45.2001C76.1487 45.5398 77.0489 45.4127 77.3102 44.7544C77.4397 44.4275 77.0325 43.3075 75.7852 40.5603C74.8768 38.5598 75.2606 38.1471 78.5249 37.6141C82.6055 36.948 82.7828 36.2749 79.6557 33.3217C78.1018 31.8541 77.7228 31.1968 78.0695 30.5706C78.1944 30.3447 79.1675 29.6511 80.2318 29.0295L82.1667 27.8991V26.7188V25.5385L79.9475 24.4773C77.9145 23.5052 77.7226 23.3588 77.6596 22.7352C77.6033 22.1769 77.8653 21.7206 79.1122 20.2037C81.0953 17.7907 81.2435 17.4726 80.6508 16.8994C80.2866 16.547 79.7021 16.4103 77.8357 16.2404C73.8665 15.8791 73.706 15.6385 74.9977 11.9827C76.2361 8.4772 75.9418 8.17871 72.161 9.10566C70.8691 9.42242 69.5449 9.65157 69.218 9.61481C68.3907 9.52192 68.0836 8.51638 68.0677 5.84648C68.0606 4.65824 67.9432 3.48365 67.8064 3.23667C67.4279 2.55296 66.5108 2.8455 64.2489 4.37186C61.366 6.31711 60.728 6.14717 59.7165 3.16447C59.2565 1.80739 58.5195 0.357204 58.1804 0.14104C57.8959 -0.0399032 57.6088 -0.0462866 57.1839 0.119248ZM49.2276 9.73984C50.6686 10.3337 51.5852 11.9013 51.3756 13.4129C51.1889 14.7589 50.6823 15.302 48.7253 16.2536C46.6561 17.2598 44.5626 19.036 43.3314 20.83C42.2043 22.4721 41.2326 25.2554 41.0476 27.3715C40.8853 29.2276 40.4114 30.0486 39.133 30.6881C37.6264 31.4414 35.3827 30.8708 34.4303 29.4919C33.8017 28.5819 33.7568 27.2363 34.2681 24.6291C35.4792 18.4555 39.3927 13.2975 45.0266 10.4504C47.1236 9.39072 48.0147 9.23993 49.2276 9.73984ZM99.1756 11.9352C98.0414 12.6873 97.7856 12.9691 96.9888 14.3424C96.5115 15.1655 96.506 15.3258 96.506 28.699C96.506 41.8573 96.5185 42.2447 96.9655 43.0145C97.8537 44.5439 98.1539 44.873 99.2633 45.5332L100.382 46.199H157.876H215.37L216.504 45.6023C217.238 45.2157 217.951 44.5824 218.526 43.8054L219.415 42.6053V28.7611V14.917L218.53 13.6568C217.917 12.7837 217.295 12.2125 216.507 11.7978L215.37 11.1991L157.816 11.2068L100.262 11.2147L99.1756 11.9352ZM65.9127 11.6466C66.8741 12.0003 69.068 13.9471 70.3285 15.5652C72.4309 18.2649 73.9675 21.6764 74.5302 24.894C74.7735 26.2854 74.7132 29.7629 74.4148 31.5525C73.9973 34.0547 72.7485 35.2689 70.6344 35.228C69.4042 35.204 68.4671 34.7406 67.7884 33.8203C67.2203 33.05 67.2294 33.2112 67.4975 28.6508C67.7392 24.536 66.4965 21.5373 63.2674 18.4438C61.7381 16.9789 61.2554 16.3687 61.1352 15.7491C60.6242 13.115 63.4072 10.7253 65.9127 11.6466ZM121.147 15.1477C123.295 15.6791 124.48 16.2558 125.549 17.2893C126.92 18.6155 127.346 19.7813 127.347 22.2053C127.347 24.7104 126.87 25.8326 125.138 27.399C124.538 27.9423 124.047 28.4569 124.047 28.5428C124.047 28.6288 124.381 28.9568 124.789 29.2716C125.197 29.5866 125.837 30.379 126.211 31.0326L126.892 32.2211L126.965 36.8987L127.038 41.5764H124.859H122.681V37.6053C122.681 32.765 122.513 32.2745 120.537 31.3395C118.846 30.5395 117.12 30.3656 110.781 30.3573C106.427 30.3513 105.345 30.4085 105.25 30.6487C105.185 30.8131 105.111 33.3144 105.086 36.2069L105.041 41.4663L102.936 41.5297L100.831 41.5929V28.1571V14.7211H110.126C118.578 14.7211 119.578 14.7598 121.147 15.1477ZM179.258 15.1653C182.297 15.917 184.443 17.4988 185.376 19.6739C185.61 20.22 185.754 21.1659 185.754 22.1651C185.754 24.0427 185.265 25.0557 183.67 26.4811L182.704 27.3448L183.249 27.7494C185.032 29.0735 185.53 29.5928 186.108 30.7332C186.656 31.8132 186.749 32.2618 186.739 33.7619C186.718 36.7394 185.361 38.654 182.201 40.1619C179.417 41.4901 178.415 41.5885 168.313 41.5238L159.314 41.4663L159.315 28.2588C159.315 20.9946 159.318 14.9769 159.321 14.8862C159.324 14.7955 163.407 14.7211 168.394 14.7211C176.744 14.7211 177.604 14.7563 179.258 15.1653ZM146.011 15.7114C148.639 16.2435 151.199 17.6063 153.206 19.5431C160.647 26.721 157.564 38.398 147.325 41.8148C145.457 42.4384 142.333 42.5868 140.207 42.1531C133.703 40.8266 128.826 35.1558 128.826 28.9192C128.826 25.3203 130.724 21.318 133.555 18.9464C137.114 15.9646 141.558 14.8104 146.011 15.7114ZM206.984 16.1365C212.803 18.0256 216.688 23.1299 216.681 28.8756C216.679 29.9892 216.528 31.4451 216.345 32.111C215.146 36.4759 211.582 40.181 207.109 41.7149C205.661 42.2115 205.022 42.2982 202.685 42.3158C199.6 42.3391 198.237 42.0367 195.72 40.771C192.698 39.251 190.124 36.3533 188.999 33.2059C186.72 26.8229 189.789 19.9028 196.27 16.8131C199.569 15.2399 203.465 14.994 206.984 16.1365ZM295.374 16.0612C288.571 16.7566 283.408 20.6631 282.441 25.8471C282.306 26.5682 282.115 27.5544 282.015 28.0387C281.906 28.567 281.823 26.3849 281.807 22.582L281.779 16.2448L279.788 16.3084C278.692 16.3434 277.822 16.4464 277.853 16.5371C277.884 16.6278 277.91 22.501 277.91 29.5884V42.4747L279.788 42.4107L281.665 42.3468L281.779 35.9632C281.846 32.2175 281.963 29.9434 282.061 30.4601C282.154 30.9443 282.231 31.6095 282.232 31.9382C282.237 33.1768 283.18 35.4327 284.364 37.0381C286.693 40.196 291.14 42.2264 296.513 42.5844C301.883 42.9421 306.667 41.4976 309.678 38.6095C311.216 37.1336 312.054 35.6141 312.506 33.4811C312.828 31.9617 312.687 29.3951 312.254 28.891C312.036 28.6365 310.685 28.5932 304.453 28.6412L296.915 28.699V30.35V32.0009L302.805 32.0597L308.694 32.1185L308.546 33.0155C308.204 35.0803 306.674 36.825 304.199 37.9721C302.034 38.9752 300.432 39.2255 297.029 39.0921C291.274 38.8664 287.989 36.9016 286.536 32.8154C285.993 31.2899 285.946 27.677 286.448 26.076C287.531 22.6236 290.564 20.2724 294.869 19.5473C296.836 19.216 300.854 19.3886 302.546 19.8771C305.157 20.6306 307.03 22.3467 307.974 24.8499L308.47 26.1676H310.375C312.552 26.1676 312.557 26.1603 311.899 24.2807C310.2 19.4318 306.773 16.8957 300.898 16.1382C298.278 15.8006 297.965 15.7962 295.374 16.0612ZM372.709 16.0601C366.659 16.7475 363.615 19.3461 364.003 23.4922C364.294 26.5933 366.458 28.5005 371.002 29.6595C371.941 29.899 374.296 30.405 376.237 30.7839C382.572 32.021 383.921 32.4856 384.54 33.6431C385.44 35.3268 384.667 37.1153 382.61 38.1083C380.786 38.9884 379.097 39.2193 375.44 39.0883C371.394 38.9435 369.731 38.4183 368.289 36.8305C367.36 35.8071 367.167 35.3024 366.986 33.4181L366.84 31.8909H364.937H363.036L363.038 33.4868C363.042 36.158 363.792 37.9124 365.628 39.5499C367.088 40.8509 368.97 41.6799 371.798 42.2676C374.025 42.7303 379.631 42.615 381.732 42.0631C387.702 40.4956 390.358 36.6956 388.323 32.6325C386.823 29.6374 384.551 28.6396 375.623 27.0543C371.555 26.332 369.597 25.7546 368.82 25.0489C366.909 23.3128 367.941 20.7411 370.904 19.8566C371.984 19.5343 373.005 19.4546 376.009 19.4577C379.49 19.4613 379.863 19.5013 381.109 20.008C382.878 20.727 383.623 21.6403 384.159 23.7491L384.578 25.3972H386.382H388.186L388.113 24.0984C387.897 20.2328 384.96 17.2769 380.448 16.3835C378.269 15.952 374.9 15.8111 372.709 16.0601ZM222.656 29.3044L222.715 42.3468H224.65H226.584L226.698 37.6251L226.812 32.9032L228.974 31.415C230.163 30.5963 231.269 29.9227 231.431 29.9181C231.593 29.9135 234.656 32.3613 238.238 35.3578C241.819 38.3544 245.209 41.18 245.77 41.6369L246.791 42.4677L250.344 42.4074L253.897 42.3468L253.956 32.3685C253.989 26.8806 254.101 22.423 254.204 22.4629C254.308 22.5029 257.039 25.4082 260.273 28.9192C263.507 32.4302 267.639 36.9163 269.455 38.8884L272.758 42.4741L274.481 42.4105L276.203 42.3468V29.3594V16.372L274.214 16.3084L272.224 16.2448L272.165 26.1757L272.106 36.1069L269.041 32.857C262.976 26.4251 256.656 19.6415 255.177 17.9747L253.67 16.2756L249.652 16.2688L245.635 16.2619L241.345 19.0848C238.985 20.6376 234.775 23.4112 231.988 25.2484C229.202 27.0857 226.871 28.589 226.81 28.589C226.748 28.589 226.698 25.8154 226.698 22.4255V16.2619H224.648H222.597L222.656 29.3044ZM313.927 29.2958L313.986 42.3468H315.921H317.855L317.916 36.346L317.976 30.3449L327.02 30.4026L336.064 30.4601L336.178 36.4034L336.292 42.3468H338.112H339.933L340.047 31.0104L340.161 19.6739H345.054H349.948L350.062 31.0104L350.176 42.3468H351.997H353.817L353.931 31.0104L354.045 19.6739L359.28 19.5638L364.515 19.4538L364.582 17.8579L364.649 16.2619H350.417H336.186L336.125 21.6L336.064 26.938L327.021 26.9955L317.977 27.0532L317.916 21.7125L317.855 16.372L315.862 16.3084L313.868 16.2448L313.927 29.2958ZM57.6368 18.26C61.412 19.4899 64.0126 22.4743 64.6449 26.3025C65.2235 29.805 63.6268 33.7159 60.799 35.7235C58.8154 37.1316 57.2558 37.6894 55.0057 37.7953C49.7211 38.0438 45.5948 35.1243 44.268 30.1974C42.921 25.1962 46.0163 19.8198 51.1577 18.2303C53.0043 17.6593 55.833 17.6723 57.6368 18.26ZM250.142 29.0292C250.142 35.0684 250.053 40.0628 249.944 40.1278C249.752 40.2427 235.075 28.1098 234.937 27.7221C234.899 27.616 236.845 26.2427 239.262 24.6703C241.678 23.0982 245.03 20.9145 246.711 19.8181C248.391 18.7216 249.851 17.875 249.954 17.9367C250.057 17.9985 250.142 22.9901 250.142 29.0292ZM105.145 18.5017C105.076 20.4118 105.173 26.4579 105.275 26.6175C105.492 26.9568 116.112 26.8661 118.192 26.5075C120.206 26.1601 121.721 25.4011 122.495 24.3507C122.91 23.7889 123.022 23.3454 123.022 22.2764C123.022 20.5544 122.568 19.9061 120.736 19.0135L119.381 18.3531L112.268 18.2816C106.48 18.2233 105.153 18.2642 105.145 18.5017ZM163.64 18.5017C163.544 21.2654 163.666 25.6102 163.844 25.7826C163.992 25.9259 166.382 25.9642 170.633 25.8911C176.287 25.7938 177.359 25.721 178.393 25.3637C180.715 24.5613 181.861 23.1244 181.531 21.427C181.327 20.3726 180.476 19.4892 179.076 18.8788C177.909 18.3696 177.683 18.3534 170.763 18.2827C164.975 18.2235 163.649 18.2642 163.64 18.5017ZM54.7647 18.877C54.51 19.1491 53.9667 19.3239 53.1794 19.3868C51.5802 19.5152 49.2861 20.5874 48.047 21.786C47.4955 22.3194 46.7273 23.3995 46.34 24.1865C45.6981 25.4903 45.6355 25.8128 45.6355 27.8185C45.6355 29.7369 45.7127 30.1787 46.2352 31.2569C48.3925 35.7063 53.6339 37.4781 58.1986 35.3013C62.6024 33.2011 64.3019 27.9299 61.9484 23.6716C61.1702 22.2632 59.274 20.616 57.7088 19.9887C57.0148 19.7104 56.4469 19.356 56.4469 19.2008C56.4469 18.9241 55.7673 18.4632 55.3592 18.4632C55.2451 18.4632 54.9775 18.6494 54.7647 18.877ZM140.97 20.6627C137.595 21.3464 134.879 24.057 134.148 27.4707C133.331 31.2893 135.605 35.2222 139.656 36.9954C140.576 37.3978 141.183 37.4851 143.052 37.4838C145.215 37.4823 145.407 37.4431 146.924 36.6912C148.856 35.734 150.487 34.1225 151.28 32.3875C151.769 31.3179 151.851 30.8178 151.844 28.9416C151.837 26.9416 151.774 26.6244 151.132 25.3637C149.665 22.4809 146.764 20.6103 143.621 20.5203C142.682 20.4934 141.489 20.5575 140.97 20.6627ZM201.092 20.5742C197.442 21.419 195.619 22.7233 194.199 25.5072C193.644 26.5953 193.582 26.9519 193.588 29.0292C193.596 31.875 194.031 32.8984 196.074 34.8734C197.541 36.2923 198.908 37.0323 200.779 37.4204C204.577 38.2083 208.981 35.9757 210.724 32.3791C211.231 31.3331 211.34 30.7858 211.368 29.1393C211.397 27.3957 211.324 26.9935 210.757 25.785C209.693 23.5133 207.938 21.9645 205.237 20.9132C204.525 20.6358 201.791 20.4122 201.092 20.5742ZM144.73 23.9353C146.371 24.5384 147.404 25.4031 148.08 26.7395C149.771 30.081 147.436 34.0028 143.597 34.2713C141.085 34.447 139.232 33.5401 138.021 31.5417C137.486 30.6582 137.437 30.3874 137.509 28.7072C137.602 26.5605 137.769 26.2838 138.754 26.6433C140.223 27.1797 141.8 26.1599 141.8 24.6734C141.8 24.2039 141.868 23.7535 141.952 23.6729C142.238 23.396 143.617 23.5263 144.73 23.9353ZM204.773 24.4251C206.222 25.1033 207.919 27.3814 207.764 28.4389C207.714 28.7759 207.508 28.9396 207.075 28.9881C205.721 29.1391 204.815 31.1834 205.637 32.234C206.244 33.01 206.051 33.3697 204.697 33.9895C202.877 34.8218 201.115 34.7096 199.276 33.6435C197.735 32.75 196.996 31.7804 196.645 30.1902C196.132 27.8692 197.346 25.6521 199.82 24.3888C200.937 23.8182 201.257 23.753 202.445 23.8539C203.189 23.917 204.237 24.1739 204.773 24.4251ZM163.646 29.7446C163.636 30.4257 163.631 37.5349 163.64 37.7931C163.648 38.0273 165.027 38.0685 170.877 38.0093C177.77 37.9395 178.163 37.9131 179.395 37.4356C180.787 36.8956 182.2 35.6009 182.451 34.6347C182.676 33.765 182.415 32.4253 181.877 31.6947C181.289 30.8963 179.448 29.9949 177.788 29.6927C175.915 29.3515 163.652 29.3966 163.646 29.7446ZM16.393 31.7139C16.1231 31.9928 15.7023 32.5332 15.4576 32.9147C14.7229 34.0606 14.3967 34.0226 13.0731 32.6362C12.2763 31.8015 11.7635 31.4304 11.5281 31.5175C11.3344 31.5895 10.9887 32.2635 10.7597 33.0153C10.1841 34.905 9.89232 35.031 8.18708 34.1245C6.29611 33.1189 6.04483 33.2528 6.21144 35.1758C6.39603 37.3038 6.20893 37.5043 4.34573 37.1776C3.55502 37.0389 2.7659 36.9782 2.59223 37.0427C2.17753 37.1966 2.1905 37.9164 2.6225 38.7242C3.61966 40.5889 3.4749 40.9783 1.68931 41.2372C0.165472 41.4582 0 41.5542 0 42.2156C0 42.6165 0.294298 43.0856 0.910434 43.6676C1.41117 44.1404 1.82087 44.7024 1.82087 44.9164C1.82087 45.1396 1.43348 45.5193 0.912255 45.8072C0.0794353 46.2671 0.003414 46.3864 0.00182074 47.2343C-1.32062e-07 48.1199 0.044156 48.1784 1.02424 48.5977C2.31614 49.1505 2.33572 49.5568 1.13804 50.9588C-0.211904 52.5387 -0.0566746 52.8825 2.09946 53.0868C2.8162 53.1546 3.50745 53.2728 3.63582 53.3496C3.97154 53.5504 3.92329 54.4531 3.52793 55.3681C3.34015 55.8029 3.18652 56.4069 3.18652 56.7105C3.18652 57.2449 3.22112 57.2575 4.26766 57.1019C4.86217 57.0134 5.75849 56.9262 6.25923 56.9081L7.16967 56.8751L7.28347 58.416C7.39523 59.93 7.5805 60.5072 7.95423 60.5072C8.05802 60.5072 8.67302 60.1546 9.32102 59.7233C10.9034 58.6707 11.3624 58.7618 11.9747 60.2497C12.2403 60.8951 12.6314 61.5885 12.8437 61.7905C13.2682 62.1947 13.2851 62.1815 14.8612 60.2041C15.2108 59.7654 15.6037 59.4066 15.7343 59.4066C15.865 59.4066 16.5132 59.9514 17.1747 60.6173C17.8363 61.2831 18.4848 61.828 18.6156 61.828C18.8369 61.828 19.2605 60.881 19.7482 59.2965C20.0264 58.3929 20.632 58.3627 22.2043 59.1741C23.9506 60.0753 24.2216 59.879 24.0127 57.8657C23.8104 55.9178 24.0234 55.7329 26.0439 56.1016C28.2262 56.4998 28.3951 56.2498 27.3968 54.0985C26.6775 52.5481 26.8284 52.2382 28.4128 52.0132C29.8258 51.8125 30.5 51.5536 30.4975 51.2124C30.4963 51.0581 29.9838 50.3535 29.3583 49.6469C28.7328 48.9403 28.2842 48.2634 28.3612 48.1427C28.4383 48.0221 29.0465 47.5863 29.7129 47.174C30.3794 46.7617 30.9914 46.3197 31.0731 46.192C31.308 45.8244 30.7283 45.3135 29.4626 44.7722C28.8198 44.4972 28.2321 44.1166 28.1565 43.9267C28.0714 43.7118 28.4028 43.1034 29.0319 42.3202C29.5886 41.6266 30.0443 40.9895 30.0443 40.9046C30.0443 40.5535 29.3984 40.3074 28.1096 40.1674C26.1766 39.9574 26.0366 39.7584 26.6288 38.0586C27.2675 36.2249 27.1528 35.9722 25.7726 36.1752C23.5547 36.5014 23.1419 36.4541 22.9666 35.8531C22.8785 35.5505 22.7961 34.7796 22.7836 34.1403C22.7684 33.3598 22.6555 32.9387 22.4404 32.8588C22.2642 32.7934 21.5554 33.1024 20.8653 33.5456C19.4778 34.4366 18.892 34.4672 18.5501 33.6666C18.0143 32.4119 17.3934 31.3571 17.1478 31.2846C17.0024 31.2419 16.6628 31.435 16.393 31.7139ZM12.968 36.9483C14.1019 38.0449 13.7416 39.3373 12.0632 40.1936C9.82199 41.3369 8.3464 43.3843 7.98496 45.8519C7.73732 47.5429 7.54408 47.8427 6.48252 48.1815C5.59052 48.4663 4.51735 48.0591 4.08102 47.2706C3.76806 46.7053 3.97177 44.8732 4.52941 43.2388C5.98633 38.9677 11.1082 35.1496 12.968 36.9483ZM45.9157 37.904C50.1492 40.6919 54.9206 41.1262 59.9441 39.181C60.9187 38.8035 61.968 38.4946 62.2755 38.4946C64.537 38.4946 66.4212 41.0085 65.7911 43.1851C65.3896 44.5719 64.6834 45.1858 62.5921 45.9657C57.4609 47.8795 52.0823 48.0884 47.4202 46.5548C44.2505 45.512 40.5555 43.3944 39.6983 42.1289C38.8145 40.8244 39.0854 38.8708 40.3195 37.6502C41.8422 36.1439 43.3467 36.2122 45.9157 37.904ZM23.1944 38.8799C25.6936 41.299 27.0385 45.1537 26.4506 48.2116C26.1258 49.9005 25.5115 50.6044 24.3714 50.5945C22.8617 50.5815 22.1777 49.6312 22.4884 47.9783C22.9359 45.5972 22.1545 43.3671 20.1884 41.4148C19.2425 40.4756 19.0281 40.1209 19.0281 39.4947C19.0281 38.3927 19.8436 37.6141 20.9978 37.6141C21.7767 37.6141 22.0487 37.7709 23.1944 38.8799ZM18.0034 41.7195C19.9419 42.7398 20.9416 44.3947 20.9377 46.5772C20.9302 50.9571 16.1946 53.4722 12.2565 51.1882C10.5262 50.1846 9.70318 48.8161 9.59962 46.7707C9.5302 45.3943 9.59848 45.0645 10.1743 43.9978C10.8576 42.7327 12.3107 41.5691 13.7396 41.143C14.9036 40.7958 16.7135 41.0406 18.0034 41.7195ZM15.585 41.5861C15.5111 41.7019 15.1749 41.7987 14.838 41.8014C13.3447 41.8133 10.8733 43.6639 10.5895 44.9828C10.5237 45.2886 10.417 45.7854 10.3523 46.087C9.94262 47.9966 11.8976 50.5573 14.1349 51.0414C15.5133 51.3398 16.6502 51.1446 17.9151 50.3927C19.7951 49.2751 20.5756 46.5484 19.583 44.5655C19.0385 43.4778 18.0043 42.5185 17.0167 42.1857C16.671 42.069 16.3878 41.8949 16.3878 41.7985C16.3878 41.5242 15.735 41.3514 15.585 41.5861ZM10.6744 52.1283C11.4751 52.6049 12.6411 53.1132 13.2655 53.258C14.721 53.5957 16.9958 53.3932 18.3751 52.803C19.0604 52.5098 19.6658 52.3954 20.0735 52.4819C21.5113 52.7874 22.165 54.8903 21.1107 55.8185C19.6087 57.141 15.3447 57.777 12.4281 57.1135C9.78375 56.5119 7.22589 54.9653 6.91884 53.7826C6.70785 52.9692 7.25388 51.9146 8.06212 51.5743C9.04288 51.1613 9.05176 51.1631 10.6744 52.1283Z" fill="white"/>
</svg>
